<svg version="1.1" viewBox="0.0 0.0 480.0 480.0" fill="none" stroke="none" stroke-linecap="square" stroke-miterlimit="10" xmlns:xlink="http://www.w3.org/1999/xlink" xmlns="http://www.w3.org/2000/svg"><clipPath id="p.0"><path d="m0 0l480.0 0l0 480.0l-480.0 0l0 -480.0z" clip-rule="nonzero"/></clipPath><g clip-path="url(#p.0)"><path fill="#000000" fill-opacity="0.0" d="m0 0l480.0 0l0 480.0l-480.0 0z" fill-rule="evenodd"/><path fill="#999999" d="m60.224415 205.89037l0 0c80.4514 0 145.67014 -65.218735 145.67014 -145.67014l68.25029 0l0 0c0 80.45139 65.21875 145.67014 145.67014 145.67014l0 68.25029l0 0c-80.451385 0 -145.67014 65.21875 -145.67014 145.67014l-68.25029 0c0 -80.451385 -65.218735 -145.67014 -145.67014 -145.67014z" fill-rule="evenodd"/><path fill="#999999" d="m88.741745 343.0121l0 0c56.880417 -56.8804 56.880417 -149.10178 0 -205.98218l48.254044 -48.254044l0 0c56.8804 56.880417 149.10178 56.880417 205.98218 0l48.25403 48.254044l0 0c-56.8804 56.8804 -56.8804 149.10178 0 205.98218l-48.25403 48.25403c-56.8804 -56.8804 -149.10178 -56.8804 -205.98218 0z" fill-rule="evenodd"/><path fill="#000000" d="m160.5234 240.04579l0 0c0 -43.904465 35.5916 -79.49606 79.49606 -79.49606l0 0c21.08368 0 41.303802 8.375458 56.21222 23.28386c14.908386 14.9084015 23.283844 35.12854 23.283844 56.212204l0 0c0 43.904465 -35.591583 79.49608 -79.49606 79.49608l0 0c-43.904465 0 -79.49606 -35.591614 -79.49606 -79.49608z" fill-rule="evenodd"/></g></svg>